<svg xmlns="http://www.w3.org/2000/svg" xmlns:xlink="http://www.w3.org/1999/xlink" xmlns:inkscape="http://www.inkscape.org/namespaces/inkscape" id="hexagons" version="1.1" height="8.825in" width="10.475in" viewBox="60 0 1687 1560" preserveAspectRatio="xMinyMin">
	<script type="text/ecmascript"><![CDATA[
  		//Use the filters (true) or use flat colors (false).
  		useFilters = true;
  		//Allow free editing of colors (true) or limit user color changes to adjacent colors (false).
  		freeEdit = false;

  		//Define the colors.
  		locationColor = "#DEDACA";
		mountainColor = "#374049";
		waterColor = "#3893E0";
		terrainColors = new Array ("#705540","#FACF00","#1E5F00","#A3D000","#D78882"); //grass #98C000
		                           // canyon   desert     forest   grass   flower 
		nearLocationColors = terrainColors.slice(0);
		nearLocationColors.push(waterColor);
		fullColors = nearLocationColors.slice(0);
		fullColors.push(mountainColor);
		freeColors = fullColors.slice(0);
		freeColors.push(locationColor);
		//Define the filters (mostly borrowed Inkscape filters) for each terrain type.
		fullColorFilters = new Array ("filter102c","filter134d","filter134f","filter134g","T4","filter134w","filter102m");

		function applyFilter(element,color) {
			//Apply a filter from the array to the element.
			if (!color)
				color = element.getAttribute("fill");
			var filterIndex = fullColors.indexOf(color);
			if (useFilters) {
				if (filterIndex > -1)
					element.setAttribute("filter","url(#" + fullColorFilters[filterIndex] + ")");
				else
					element.setAttribute("filter","");
			}
			element.setAttribute("stroke","#d2bc76");
			//element.setAttribute("stroke-width","20");
		}

		function changeFill(evt) {
			//Click to change the terrain type of a tile, with special behavior on locations.
			var element = evt.target;

			if (freeEdit) {
				//If free editing is allowed, use a random color and return.
				randomFill(element,freeColors);
				return;
			}

			element.setAttribute("stroke-width",4); //handy for debugging

			if (document.getElementsByClassName("locationClass").length == 3) {
				//All three locations exist, so populate tile with (local) terrain.
				element.setAttribute("class","");
				controlledFill(element,0,true);
			} else {
				//When short on locations, click converts to a new location.
				element.setAttribute("class","locationClass");
				setFillAndFilter(element,locationColor);
			}
			element.setAttribute("stroke-width",1);
		}	

		function controlledFill(element, limit, toggle) {
			//Color or recolor (toggle) a tile based on neighboring colors if enough neighbors are colored (limit).
			var edge = element.getAttribute("data-edge");
			var tempIds = getLocalTiles(element);
			var tempFillColors = new Array ();

			for (var i = 0; i< tempIds.length; i++) {
				if ( ((tempColor = document.getElementById(tempIds[i]).getAttribute("fill")) != null)
					&& tempColor != locationColor
					&& tempFillColors.indexOf(tempColor) < 0 )
					tempFillColors.push(tempColor);
			}
			if (!limit || tempFillColors.length >= limit) {
				if (toggle && (currentColor = element.getAttribute("fill")) && ((currentColorIndex = tempFillColors.indexOf(currentColor)) > -1))
					tempFillColors.splice(currentColorIndex,1);
				randomFill(element,tempFillColors);
			}
		}	

		function initFill() {
			//Initialize the board with locations and seed terrain, then fill in the rest.

			//If the board isn't blank (saved user output), don't initialize.
			if (document.getElementById("h:1:1").getAttribute("fill")) return;

			seedLocations();
			seedTerrain(19);
			fillTerrain(7);

			function fillTerrain(tries) {
				for (j = 0; j < tries; j++) {
					var allElements = document.getElementsByTagName("polygon");
					for (var i = 0; i < allElements.length; i++) {
						var element = allElements[i];
						if (!element.getAttribute("fill") || element.getAttribute("fill") == "null") {
							controlledFill(element,3-0.5*j);
							//console.log("found an unfilled tile on try " + j);
						}
					}
				}
			}
			//Init the viewbox.
			//shape = document.getElementsByTagName("svg")[0];
			//shape.setAttribute("viewBox", "0 0 250 550"); 
		}

		function getLocalTiles(element,center) {
			//Return verified neighbors of a tile, as an array of ids.
			var col = parseInt(element.getAttribute("data-column"));
			var row = parseInt(element.getAttribute("data-row-right"));
			var tempArray = new Array ();
			var returnArray = new Array ();
			tempArray[0] = "h:" + eval(col-1) + ":" + row;
			tempArray[1] = "h:" + eval(col-1) + ":" + eval(row+1);
			tempArray[2] = "h:" + col + ":" + eval(row+1);
			tempArray[3] = "h:" + col + ":" + eval(row-1);
			tempArray[4] = "h:" + eval(col+1) + ":" + eval(row-1);
			tempArray[5] = "h:" + eval(col+1) + ":" + row;
			if (center)
				tempArray[6] = "h:" + col + ":" + row;
			for (k = 0; k < 6; k++) {
				if (document.getElementById(tempArray[k]))
					returnArray.push(tempArray[k]);
			}
			return returnArray.slice(0);
		}

		function getRowRight(col,row) {
			//Convert to the right-row number of a row.
			//Columns are vertical from left to right, row-rights are downwards diagonally from left to right.
			//Columns and virtual rows are numbered 1 to 10.
			//(This function was simpler when they were numbered 0 to 9.)
			//Row-right 0 starts at the first hex drawn (before rotation) and runs down diagonally right.
			return row - (col - Math.floor((col - 1) * .5));
		}

		function randomFill(element,colorArray) {
			//Fill in a tile at random from a provided color list (colorArray) or from the full color list.
			if (!colorArray || colorArray.length == 0) 
				colorArray = fullColors.slice(0);
			var index = Math.floor(colorArray.length*Math.random());
			setFillAndFilter(element,colorArray[index]);
		}

		function seedLocations() {
			//Place one location each away from the edges in 3 of the 4 quadrants.
			var omitQuadrant = Math.floor(Math.random()*4);
			var j = 0;
			for (i = 0; i < 4; i++) {
				if (i != omitQuadrant) {
					if (i < 2) 
						var col = Math.floor(Math.random()*3) + 2; //+2 to keep off outside edge; *3 to keep off "inside" edge
					else
						var col = Math.floor(Math.random()*3) + 7; //+5 more to shift to second quadrant
					if (i%2 == 0)
						var row = Math.floor(Math.random()*3) + 2; //use "horizontal" row numbers for simplicity; convert below
					else
						var row = Math.floor(Math.random()*3) + 7;

					var row_right = getRowRight(col,row);
					var element = document.getElementById("h:" + col + ":" + row_right)

					//color and mark with a class
					setFillAndFilter(element,locationColor);
					element.setAttribute("class","locationClass");

					//seed some terrain here
					seedLocationTerrain(element,2*j);
					seedLocationWater(col,row);
					j += 1;
				}
			}

			function seedLocationTerrain(element,colorIndex) {
				//Add two different terrain elements placed randomly next to the location, cycling through terrain array.
				var neighborTiles = getLocalTiles(element);

				//first tile
				var index = Math.floor(neighborTiles.length*Math.random());
				setFillAndFilter(document.getElementById(neighborTiles[index]),nearLocationColors[colorIndex]);
				neighborTiles.splice(index,1);
				//second tile
				index = Math.floor(neighborTiles.length*Math.random());
				setFillAndFilter(document.getElementById(neighborTiles[index]),nearLocationColors[colorIndex + 1]);
			}

			function seedLocationWater(col,row) {
				//Locations tend to be separated by water
				if (col < 4) 
					seedCol = Math.floor(Math.random()) + 5;
				else if (col > 8)
					seedCol = Math.floor(Math.random()) + 7;
				else
					seedCol = Math.floor(Math.random()) + 6;
				if (row < 4) 
					seedRow = Math.floor(Math.random()) + 5;
				else if (row > 8)
					seedRow = Math.floor(Math.random()) + 7;
				else
					seedRow = Math.floor(Math.random()) + 6;
				switch (Math.floor(Math.random()*3)) {
					case 0:
						//use both seeds
						break;
					case 1:
						//use random seedRow
						seedRow = row + (Math.floor(Math.random()*3) - 1);
						break;
					case 2:
						//use random seedCol
						seedCol = col + (Math.floor(Math.random()*3) - 1);
						break;
					case 3:
						//use random only
						seedRow = row + (Math.floor(Math.random()*3) - 1);
						seedCol = col + (Math.floor(Math.random()*3) - 1);
						break;
					case 4:
						//do nothing
						return;
				}

				var seedRowRight = getRowRight(seedCol,seedRow);
				var candidate = document.getElementById("h:" + seedCol + ":" + seedRowRight);
				//if (!candidate) debugger;
				if (!candidate.getAttribute("fill")) {
					setFillAndFilter(candidate,waterColor);
				}
			}
		}

		function seedTerrain(seeds) {
			//Extra seeding for the terrain, on top of what was added with seedLocations().
			for (i = 0; i < seeds; i++) {
				var col = Math.floor(Math.random()*10) + 1;
				var row = Math.floor(Math.random()*10);
				var row_right = row - Math.floor(col*.5); //calculate the right-row number of a row
				if (document.getElementById("h:" + col + ":" + row_right).getAttribute("fill"))
					i = i - 1;
				else
					setFillAndFilter(document.getElementById("h:" + col + ":" + row_right),fullColors[i%fullColors.length]);
			}
		}

		function setFillAndFilter(element,color) {
			//if (!element) debugger;
			element.setAttribute("fill",color);
			applyFilter(element,color);
		}

	]]></script>

<defs>
	<filter xmlns="http://www.w3.org/2000/svg" id="T4">
		<feTurbulence baseFrequency=".04" numOctaves="5" seed="201"/>
		<feComposite in2="SourceGraphic" operator="atop"/>
	</filter>

    <filter xmlns="http://www.w3.org/2000/svg" id="filter102c" inkscape:label="Diffuse light" xmlns:inkscape="http://www.inkscape.org/namespaces/inkscape" inkscape:menu="ABCs" inkscape:menu-tooltip="Basic diffuse bevel to use for building textures" color-interpolation-filters="sRGB">
      <feGaussianBlur stdDeviation="6" in="SourceGraphic" result="result0"/>
      <feTurbulence numOctaves="3" seed="24" type="turbulence" baseFrequency="0.25" result="result910"/>
      <feDisplacementMap in2="result910" scale="24" yChannelSelector="G" xChannelSelector="R" in="SourceGraphic"/>
      <feDiffuseLighting id="feDiffuseLighting106" diffuseConstant="1" surfaceScale="4" kernelUnitLength="1,1" result="result5">
        <feDistantLight id="feDistantLight108" elevation="55" azimuth="420"/>
      </feDiffuseLighting>
      <feComposite in2="SourceGraphic" k1="1.0" in="result5" result="result4" operator="arithmetic" k2="0" k3="0.8" k4="0"/>
    </filter>
    <filter xmlns="http://www.w3.org/2000/svg" id="filter102m" inkscape:label="Diffuse light" xmlns:inkscape="http://www.inkscape.org/namespaces/inkscape" inkscape:menu="ABCs" inkscape:menu-tooltip="Basic diffuse bevel to use for building textures" color-interpolation-filters="sRGB">
      <feGaussianBlur stdDeviation="6" in="SourceGraphic" result="result0"/>
      <feTurbulence numOctaves="3" seed="24" type="turbulence" baseFrequency="0.025" result="result910"/>
      <feDiffuseLighting diffuseConstant="1" surfaceScale="6" kernelUnitLength="1,1" result="result5">
        <feDistantLight elevation="45" azimuth="225"/>
      </feDiffuseLighting>
      <feComposite in2="SourceGraphic" k1="1" in="result5" result="result4" operator="arithmetic" k2="0" k3="0.6" k4="0"/>
    </filter>
    <filter xmlns="http://www.w3.org/2000/svg" id="filter134d" inkscape:label="Noise fill" xmlns:inkscape="http://www.inkscape.org/namespaces/inkscape" inkscape:menu="ABCs" inkscape:menu-tooltip="Basic noise fill texture; adjust color in Flood" color-interpolation-filters="sRGB">
      <feTurbulence id="feTurbulence136" numOctaves="3" baseFrequency="0.03" type="fractalNoise" seed="33"/>
      <feColorMatrix id="feColorMatrix138" result="result0" values="1 0 0 0 0 0 1 0 0 0 0 0 1 0 0 0 0 0 3 -1 "/>
      <feFlood id="feFlood140" flood-opacity="1" flood-color="#FAE61B" result="result1"/>
      <feBlend id="feBlend142" in2="SourceGraphic" mode="normal" in="result1" result="result2"/>
      <feComposite id="feComposite144" in2="result0" operator="out" result="result3"/>
      <feComposite id="feComposite146" in2="SourceGraphic" operator="atop"/>
    </filter>
    <filter xmlns="http://www.w3.org/2000/svg" id="filter134f" inkscape:label="Noise fill" xmlns:inkscape="http://www.inkscape.org/namespaces/inkscape" inkscape:menu="ABCs" inkscape:menu-tooltip="Basic noise fill texture, edited" color-interpolation-filters="sRGB">
      <feTurbulence id="feTurbulence136" numOctaves="5" baseFrequency="0.02" type="fractalNoise"/>
      <feColorMatrix id="feColorMatrix138" result="result0" values="1 0 0 0 0 0 1 0 0 0 0 0 1 0 0 0 0 0 3 -1 "/>
      <feFlood id="feFlood140" flood-opacity="1" flood-color="green" result="result1"/>
      <feBlend id="feBlend142" in2="SourceGraphic" mode="normal" in="result1" result="result2"/>
      <feComposite id="feComposite144" in2="result0" operator="out" result="result3"/>
      <feComposite id="feComposite146" in2="SourceGraphic" operator="atop"/>
    </filter>
    <filter xmlns="http://www.w3.org/2000/svg" id="filter134g" inkscape:label="Noise fill" xmlns:inkscape="http://www.inkscape.org/namespaces/inkscape" inkscape:menu="ABCs" inkscape:menu-tooltip="Basic noise fill texture, edited" color-interpolation-filters="sRGB">
      <feTurbulence id="feTurbulence136" numOctaves="7" baseFrequency="0.04" type="fractalNoise" seed="242"/>
      <feColorMatrix id="feColorMatrix138" result="result0" values="1 0 0 0 0 0 1 0 0 0 0 0 1 0 0 0 0 0 3 -1 "/>
      <feFlood id="feFlood140" flood-opacity="1" flood-color="#AADA00" result="result1"/>
      <feBlend id="feBlend142" in2="SourceGraphic" mode="normal" in="result1" result="result2"/>
      <feComposite id="feComposite144" in2="result0" operator="out" result="result3"/>
      <feComposite id="feComposite146" in2="SourceGraphic" operator="atop"/>
    </filter>
    <filter xmlns="http://www.w3.org/2000/svg" id="filter134w" inkscape:label="Noise fill" xmlns:inkscape="http://www.inkscape.org/namespaces/inkscape" inkscape:menu="ABCs" inkscape:menu-tooltip="Basic noise fill texture, edited" color-interpolation-filters="sRGB">
      <feTurbulence id="feTurbulence136" numOctaves="6" baseFrequency="0.03" type="fractalNoise" seed="201"/>
      <feColorMatrix id="feColorMatrix138" result="result0" values="1 0 0 0 0 0 1 0 0 0 0 0 1 0 0 0 0 0 3 -1 "/>
      <feFlood id="feFlood140" flood-opacity="1" flood-color="#3DA7FE" result="result1"/>
      <feBlend id="feBlend142" in2="SourceGraphic" mode="normal" in="result1" result="result2"/>
      <feComposite id="feComposite144" in2="result0" operator="out" result="result3"/>
      <feComposite id="feComposite146" in2="SourceGraphic" operator="atop"/>
    </filter>
    <filter xmlns="http://www.w3.org/2000/svg" id="filter162c" inkscape:label="Roughen" xmlns:inkscape="http://www.inkscape.org/namespaces/inkscape" inkscape:menu="ABCs" inkscape:menu-tooltip="Small-scale roughening to edges and content" color-interpolation-filters="sRGB">
      <feTurbulence id="feTurbulence164" numOctaves="3" seed="24" type="turbulence" baseFrequency="0.1" result="result91"/>
      <feDisplacementMap id="feDisplacementMap166" in2="result91" scale="24" yChannelSelector="G" xChannelSelector="R" in="SourceGraphic"/>
    </filter>
</defs>

<!--g transform="scale(0.645)"-->
  <g transform="translate(1817,-150)">
    <g transform="rotate(90)">
      <g style="fill:#d2bc76;cursor:pointer;">
	<polygon points="200,86.6 150,173 50,173 0,86.6 50,0 150,0 200,86.6" stroke="black" stroke-width="1" onclick="changeFill(evt)" data-column="1" transform="translate(150,86.6)" data-row-right="0" data-edge="1" id="h:1:0"/>
	<polygon points="200,86.6 150,173 50,173 0,86.6 50,0 150,0 200,86.6" stroke="black" stroke-width="1" onclick="changeFill(evt)" data-column="2" transform="translate(300,0)" data-row-right="-1" data-edge="1" id="h:2:-1"/>
	<polygon points="200,86.6 150,173 50,173 0,86.6 50,0 150,0 200,86.6" stroke="black" stroke-width="1" onclick="changeFill(evt)" data-column="3" transform="translate(450,86.6)" data-row-right="-1" data-edge="1" id="h:3:-1"/>
	<polygon points="200,86.6 150,173 50,173 0,86.6 50,0 150,0 200,86.6" stroke="black" stroke-width="1" onclick="changeFill(evt)" data-column="4" transform="translate(600,0)" data-row-right="-2" data-edge="1" id="h:4:-2"/>
	<polygon points="200,86.6 150,173 50,173 0,86.6 50,0 150,0 200,86.6" stroke="black" stroke-width="1" onclick="changeFill(evt)" data-column="5" transform="translate(750,86.6)" data-row-right="-2" data-edge="1" id="h:5:-2"/>
	<polygon points="200,86.6 150,173 50,173 0,86.6 50,0 150,0 200,86.6" stroke="black" stroke-width="1" onclick="changeFill(evt)" data-column="6" transform="translate(900,0)" data-row-right="-3" data-edge="1" id="h:6:-3"/>
	<polygon points="200,86.6 150,173 50,173 0,86.6 50,0 150,0 200,86.6" stroke="black" stroke-width="1" onclick="changeFill(evt)" data-column="7" transform="translate(1050,86.6)" data-row-right="-3" data-edge="1" id="h:7:-3"/>
	<polygon points="200,86.6 150,173 50,173 0,86.6 50,0 150,0 200,86.6" stroke="black" stroke-width="1" onclick="changeFill(evt)" data-column="8" transform="translate(1200,0)" data-row-right="-4" data-edge="1" id="h:8:-4"/>
	<polygon points="200,86.6 150,173 50,173 0,86.6 50,0 150,0 200,86.6" stroke="black" stroke-width="1" onclick="changeFill(evt)" data-column="9" transform="translate(1350,86.6)" data-row-right="-4" data-edge="1" id="h:9:-4"/>
	<polygon points="200,86.6 150,173 50,173 0,86.6 50,0 150,0 200,86.6" stroke="black" stroke-width="1" onclick="changeFill(evt)" data-column="10" transform="translate(1500,0)" data-row-right="-5" data-edge="1" id="h:10:-5"/>

	<polygon points="200,86.6 150,173 50,173 0,86.6 50,0 150,0 200,86.6" stroke="black" stroke-width="1" onclick="changeFill(evt)" data-column="1" transform="translate(150,259.6)" data-row-right="1" data-edge="1" id="h:1:1"/>
	<polygon points="200,86.6 150,173 50,173 0,86.6 50,0 150,0 200,86.6" stroke="black" stroke-width="1" onclick="changeFill(evt)" data-column="2" transform="translate(300,173)" data-row-right="0" data-edge="0" id="h:2:0"/>
	<polygon points="200,86.6 150,173 50,173 0,86.6 50,0 150,0 200,86.6" stroke="black" stroke-width="1" onclick="changeFill(evt)" data-column="3" transform="translate(450,259.6)" data-row-right="0" data-edge="0" id="h:3:0"/>
	<polygon points="200,86.6 150,173 50,173 0,86.6 50,0 150,0 200,86.6" stroke="black" stroke-width="1" onclick="changeFill(evt)" data-column="4" transform="translate(600,173)" data-row-right="-1" data-edge="0" id="h:4:-1"/>
	<polygon points="200,86.6 150,173 50,173 0,86.6 50,0 150,0 200,86.6" stroke="black" stroke-width="1" onclick="changeFill(evt)" data-column="5" transform="translate(750,259.6)" data-row-right="-1" data-edge="0" id="h:5:-1"/>
	<polygon points="200,86.6 150,173 50,173 0,86.6 50,0 150,0 200,86.6" stroke="black" stroke-width="1" onclick="changeFill(evt)" data-column="6" transform="translate(900,173)" data-row-right="-2" data-edge="0" id="h:6:-2"/>
	<polygon points="200,86.6 150,173 50,173 0,86.6 50,0 150,0 200,86.6" stroke="black" stroke-width="1" onclick="changeFill(evt)" data-column="7" transform="translate(1050,259.6)" data-row-right="-2" data-edge="0" id="h:7:-2"/>
	<polygon points="200,86.6 150,173 50,173 0,86.6 50,0 150,0 200,86.6" stroke="black" stroke-width="1" onclick="changeFill(evt)" data-column="8" transform="translate(1200,173)" data-row-right="-3" data-edge="0" id="h:8:-3"/>
	<polygon points="200,86.6 150,173 50,173 0,86.6 50,0 150,0 200,86.6" stroke="black" stroke-width="1" onclick="changeFill(evt)" data-column="9" transform="translate(1350,259.6)" data-row-right="-3" data-edge="0" id="h:9:-3"/>
	<polygon points="200,86.6 150,173 50,173 0,86.6 50,0 150,0 200,86.6" stroke="black" stroke-width="1" onclick="changeFill(evt)" data-column="10" transform="translate(1500,173)" data-row-right="-4" data-edge="1" id="h:10:-4"/>

	<polygon points="200,86.6 150,173 50,173 0,86.6 50,0 150,0 200,86.6" stroke="black" stroke-width="1" onclick="changeFill(evt)" data-column="1" transform="translate(150,432.6)" data-row-right="2" data-edge="1" id="h:1:2"/>
	<polygon points="200,86.6 150,173 50,173 0,86.6 50,0 150,0 200,86.6" stroke="black" stroke-width="1" onclick="changeFill(evt)" data-column="2" transform="translate(300,346)" data-row-right="1" data-edge="0" id="h:2:1"/>
	<polygon points="200,86.6 150,173 50,173 0,86.6 50,0 150,0 200,86.6" stroke="black" stroke-width="1" onclick="changeFill(evt)" data-column="3" transform="translate(450,432.6)" data-row-right="1" data-edge="0" id="h:3:1"/>
	<polygon points="200,86.6 150,173 50,173 0,86.6 50,0 150,0 200,86.6" stroke="black" stroke-width="1" onclick="changeFill(evt)" data-column="4" transform="translate(600,346)" data-row-right="0" data-edge="0" id="h:4:0"/>
	<polygon points="200,86.6 150,173 50,173 0,86.6 50,0 150,0 200,86.6" stroke="black" stroke-width="1" onclick="changeFill(evt)" data-column="5" transform="translate(750,432.6)" data-row-right="0" data-edge="0" id="h:5:0"/>
	<polygon points="200,86.6 150,173 50,173 0,86.6 50,0 150,0 200,86.6" stroke="black" stroke-width="1" onclick="changeFill(evt)" data-column="6" transform="translate(900,346)" data-row-right="-1" data-edge="0" id="h:6:-1"/>
	<polygon points="200,86.6 150,173 50,173 0,86.6 50,0 150,0 200,86.6" stroke="black" stroke-width="1" onclick="changeFill(evt)" data-column="7" transform="translate(1050,432.6)" data-row-right="-1" data-edge="0" id="h:7:-1"/>
	<polygon points="200,86.6 150,173 50,173 0,86.6 50,0 150,0 200,86.6" stroke="black" stroke-width="1" onclick="changeFill(evt)" data-column="8" transform="translate(1200,346)" data-row-right="-2" data-edge="0" id="h:8:-2"/>
	<polygon points="200,86.6 150,173 50,173 0,86.6 50,0 150,0 200,86.6" stroke="black" stroke-width="1" onclick="changeFill(evt)" data-column="9" transform="translate(1350,432.6)" data-row-right="-2" data-edge="1" id="h:9:-2"/>
	<polygon points="200,86.6 150,173 50,173 0,86.6 50,0 150,0 200,86.6" stroke="black" stroke-width="1" onclick="changeFill(evt)" data-column="10" transform="translate(1500,346)" data-row-right="-3" data-edge="1" id="h:10:-3"/>

	<polygon points="200,86.6 150,173 50,173 0,86.6 50,0 150,0 200,86.6" stroke="black" stroke-width="1" onclick="changeFill(evt)" data-column="1" transform="translate(150,605.6)" data-row-right="3" data-edge="1" id="h:1:3"/>
	<polygon points="200,86.6 150,173 50,173 0,86.6 50,0 150,0 200,86.6" stroke="black" stroke-width="1" onclick="changeFill(evt)" data-column="2" transform="translate(300,519)" data-row-right="2" data-edge="0" id="h:2:2"/>
	<polygon points="200,86.6 150,173 50,173 0,86.6 50,0 150,0 200,86.6" stroke="black" stroke-width="1" onclick="changeFill(evt)" data-column="3" transform="translate(450,605.6)" data-row-right="2" data-edge="0" id="h:3:2"/>
	<polygon points="200,86.6 150,173 50,173 0,86.6 50,0 150,0 200,86.6" stroke="black" stroke-width="1" onclick="changeFill(evt)" data-column="4" transform="translate(600,519)" data-row-right="1" data-edge="0" id="h:4:1"/>
	<polygon points="200,86.6 150,173 50,173 0,86.6 50,0 150,0 200,86.6" stroke="black" stroke-width="1" onclick="changeFill(evt)" data-column="5" transform="translate(750,605.6)" data-row-right="1" data-edge="0" id="h:5:1"/>
	<polygon points="200,86.6 150,173 50,173 0,86.6 50,0 150,0 200,86.6" stroke="black" stroke-width="1" onclick="changeFill(evt)" data-column="6" transform="translate(900,519)" data-row-right="0" data-edge="0" id="h:6:0"/>
	<polygon points="200,86.6 150,173 50,173 0,86.6 50,0 150,0 200,86.6" stroke="black" stroke-width="1" onclick="changeFill(evt)" data-column="7" transform="translate(1050,605.6)" data-row-right="0" data-edge="0" id="h:7:0"/>
	<polygon points="200,86.6 150,173 50,173 0,86.6 50,0 150,0 200,86.6" stroke="black" stroke-width="1" onclick="changeFill(evt)" data-column="8" transform="translate(1200,519)" data-row-right="-1" data-edge="0" id="h:8:-1"/>
	<polygon points="200,86.6 150,173 50,173 0,86.6 50,0 150,0 200,86.6" stroke="black" stroke-width="1" onclick="changeFill(evt)" data-column="9" transform="translate(1350,605.6)" data-row-right="-1" data-edge="0" id="h:9:-1"/>
	<polygon points="200,86.6 150,173 50,173 0,86.6 50,0 150,0 200,86.6" stroke="black" stroke-width="1" onclick="changeFill(evt)" data-column="10" transform="translate(1500,519)" data-row-right="-2" data-edge="1" id="h:10:-2"/>
	
	<polygon points="200,86.6 150,173 50,173 0,86.6 50,0 150,0 200,86.6" stroke="black" stroke-width="1" onclick="changeFill(evt)" data-column="1" transform="translate(150,778.6)" data-row-right="4" data-edge="1" id="h:1:4"/>
	<polygon points="200,86.6 150,173 50,173 0,86.6 50,0 150,0 200,86.6" stroke="black" stroke-width="1" onclick="changeFill(evt)" data-column="2" transform="translate(300,692)" data-row-right="3" data-edge="0" id="h:2:3"/>
	<polygon points="200,86.6 150,173 50,173 0,86.6 50,0 150,0 200,86.6" stroke="black" stroke-width="1" onclick="changeFill(evt)" data-column="3" transform="translate(450,778.6)" data-row-right="3" data-edge="0" id="h:3:3"/>
	<polygon points="200,86.6 150,173 50,173 0,86.6 50,0 150,0 200,86.6" stroke="black" stroke-width="1" onclick="changeFill(evt)" data-column="4" transform="translate(600,692)" data-row-right="2" data-edge="0" id="h:4:2"/>
	<polygon points="200,86.6 150,173 50,173 0,86.6 50,0 150,0 200,86.6" stroke="black" stroke-width="1" onclick="changeFill(evt)" data-column="5" transform="translate(750,778.6)" data-row-right="2" data-edge="0" id="h:5:2"/>
	<polygon points="200,86.6 150,173 50,173 0,86.6 50,0 150,0 200,86.6" stroke="black" stroke-width="1" onclick="changeFill(evt)" data-column="6" transform="translate(900,692)" data-row-right="1" data-edge="0" id="h:6:1"/>
	<polygon points="200,86.6 150,173 50,173 0,86.6 50,0 150,0 200,86.6" stroke="black" stroke-width="1" onclick="changeFill(evt)" data-column="7" transform="translate(1050,778.6)" data-row-right="1" data-edge="0" id="h:7:1"/>
	<polygon points="200,86.6 150,173 50,173 0,86.6 50,0 150,0 200,86.6" stroke="black" stroke-width="1" onclick="changeFill(evt)" data-column="8" transform="translate(1200,692)" data-row-right="0" data-edge="0" id="h:8:0"/>
	<polygon points="200,86.6 150,173 50,173 0,86.6 50,0 150,0 200,86.6" stroke="black" stroke-width="1" onclick="changeFill(evt)" data-column="9" transform="translate(1350,778.6)" data-row-right="0" data-edge="0" id="h:9:0"/>
	<polygon points="200,86.6 150,173 50,173 0,86.6 50,0 150,0 200,86.6" stroke="black" stroke-width="1" onclick="changeFill(evt)" data-column="10" transform="translate(1500,692)" data-row-right="-1" data-edge="1" id="h:10:-1"/>

	<polygon points="200,86.6 150,173 50,173 0,86.6 50,0 150,0 200,86.6" stroke="black" stroke-width="1" onclick="changeFill(evt)" data-column="1" transform="translate(150,951.6)" data-row-right="5" data-edge="1" id="h:1:5"/>
	<polygon points="200,86.6 150,173 50,173 0,86.6 50,0 150,0 200,86.6" stroke="black" stroke-width="1" onclick="changeFill(evt)" data-column="2" transform="translate(300,865)" data-row-right="4" data-edge="0" id="h:2:4"/>
	<polygon points="200,86.6 150,173 50,173 0,86.6 50,0 150,0 200,86.6" stroke="black" stroke-width="1" onclick="changeFill(evt)" data-column="3" transform="translate(450,951.6)" data-row-right="4" data-edge="0" id="h:3:4"/>
	<polygon points="200,86.6 150,173 50,173 0,86.6 50,0 150,0 200,86.6" stroke="black" stroke-width="1" onclick="changeFill(evt)" data-column="4" transform="translate(600,865)" data-row-right="3" data-edge="0" id="h:4:3"/>
	<polygon points="200,86.6 150,173 50,173 0,86.6 50,0 150,0 200,86.6" stroke="black" stroke-width="1" onclick="changeFill(evt)" data-column="5" transform="translate(750,951.6)" data-row-right="3" data-edge="0" id="h:5:3"/>
	<polygon points="200,86.6 150,173 50,173 0,86.6 50,0 150,0 200,86.6" stroke="black" stroke-width="1" onclick="changeFill(evt)" data-column="6" transform="translate(900,865)" data-row-right="2" data-edge="0" id="h:6:2"/>
	<polygon points="200,86.6 150,173 50,173 0,86.6 50,0 150,0 200,86.6" stroke="black" stroke-width="1" onclick="changeFill(evt)" data-column="7" transform="translate(1050,951.6)" data-row-right="2" data-edge="0" id="h:7:2"/>
	<polygon points="200,86.6 150,173 50,173 0,86.6 50,0 150,0 200,86.6" stroke="black" stroke-width="1" onclick="changeFill(evt)" data-column="8" transform="translate(1200,865)" data-row-right="1" data-edge="0" id="h:8:1"/>
	<polygon points="200,86.6 150,173 50,173 0,86.6 50,0 150,0 200,86.6" stroke="black" stroke-width="1" onclick="changeFill(evt)" data-column="9" transform="translate(1350,951.6)" data-row-right="1" data-edge="0" id="h:9:1"/>
	<polygon points="200,86.6 150,173 50,173 0,86.6 50,0 150,0 200,86.6" stroke="black" stroke-width="1" onclick="changeFill(evt)" data-column="10" transform="translate(1500,865)" data-row-right="0" data-edge="1" id="h:10:0"/>

	<polygon points="200,86.6 150,173 50,173 0,86.6 50,0 150,0 200,86.6" stroke="black" stroke-width="1" onclick="changeFill(evt)" data-column="1" transform="translate(150,1124.6)" data-row-right="6" data-edge="1" id="h:1:6"/>
	<polygon points="200,86.6 150,173 50,173 0,86.6 50,0 150,0 200,86.6" stroke="black" stroke-width="1" onclick="changeFill(evt)" data-column="2" transform="translate(300,1038)" data-row-right="5" data-edge="0" id="h:2:5"/>
	<polygon points="200,86.6 150,173 50,173 0,86.6 50,0 150,0 200,86.6" stroke="black" stroke-width="1" onclick="changeFill(evt)" data-column="3" transform="translate(450,1124.6)" data-row-right="5" data-edge="0" id="h:3:5"/>
	<polygon points="200,86.6 150,173 50,173 0,86.6 50,0 150,0 200,86.6" stroke="black" stroke-width="1" onclick="changeFill(evt)" data-column="4" transform="translate(600,1038)" data-row-right="4" data-edge="0" id="h:4:4"/>
	<polygon points="200,86.6 150,173 50,173 0,86.6 50,0 150,0 200,86.6" stroke="black" stroke-width="1" onclick="changeFill(evt)" data-column="5" transform="translate(750,1124.6)" data-row-right="4" data-edge="0" id="h:5:4"/>
	<polygon points="200,86.6 150,173 50,173 0,86.6 50,0 150,0 200,86.6" stroke="black" stroke-width="1" onclick="changeFill(evt)" data-column="6" transform="translate(900,1038)" data-row-right="3" data-edge="0" id="h:6:3"/>
	<polygon points="200,86.6 150,173 50,173 0,86.6 50,0 150,0 200,86.6" stroke="black" stroke-width="1" onclick="changeFill(evt)" data-column="7" transform="translate(1050,1124.6)" data-row-right="3" data-edge="0" id="h:7:3"/>
	<polygon points="200,86.6 150,173 50,173 0,86.6 50,0 150,0 200,86.6" stroke="black" stroke-width="1" onclick="changeFill(evt)" data-column="8" transform="translate(1200,1038)" data-row-right="2" data-edge="0" id="h:8:2"/>
	<polygon points="200,86.6 150,173 50,173 0,86.6 50,0 150,0 200,86.6" stroke="black" stroke-width="1" onclick="changeFill(evt)" data-column="9" transform="translate(1350,1124.6)" data-row-right="2" data-edge="0" id="h:9:2"/>
	<polygon points="200,86.6 150,173 50,173 0,86.6 50,0 150,0 200,86.6" stroke="black" stroke-width="1" onclick="changeFill(evt)" data-column="10" transform="translate(1500,1038)" data-row-right="1" data-edge="1" id="h:10:1"/>

	<polygon points="200,86.6 150,173 50,173 0,86.6 50,0 150,0 200,86.6" stroke="black" stroke-width="1" onclick="changeFill(evt)" data-column="1" transform="translate(150,1297.6)" data-row-right="7" data-edge="1" id="h:1:7"/>
	<polygon points="200,86.6 150,173 50,173 0,86.6 50,0 150,0 200,86.6" stroke="black" stroke-width="1" onclick="changeFill(evt)" data-column="2" transform="translate(300,1211)" data-row-right="6" data-edge="0" id="h:2:6"/>
	<polygon points="200,86.6 150,173 50,173 0,86.6 50,0 150,0 200,86.6" stroke="black" stroke-width="1" onclick="changeFill(evt)" data-column="3" transform="translate(450,1297.6)" data-row-right="6" data-edge="0" id="h:3:6"/>
	<polygon points="200,86.6 150,173 50,173 0,86.6 50,0 150,0 200,86.6" stroke="black" stroke-width="1" onclick="changeFill(evt)" data-column="4" transform="translate(600,1211)" data-row-right="5" data-edge="0" id="h:4:5"/>
	<polygon points="200,86.6 150,173 50,173 0,86.6 50,0 150,0 200,86.6" stroke="black" stroke-width="1" onclick="changeFill(evt)" data-column="5" transform="translate(750,1297.6)" data-row-right="5" data-edge="0" id="h:5:5"/>
	<polygon points="200,86.6 150,173 50,173 0,86.6 50,0 150,0 200,86.6" stroke="black" stroke-width="1" onclick="changeFill(evt)" data-column="6" transform="translate(900,1211)" data-row-right="4" data-edge="0" id="h:6:4"/>
	<polygon points="200,86.6 150,173 50,173 0,86.6 50,0 150,0 200,86.6" stroke="black" stroke-width="1" onclick="changeFill(evt)" data-column="7" transform="translate(1050,1297.6)" data-row-right="4" data-edge="0" id="h:7:4"/>
	<polygon points="200,86.6 150,173 50,173 0,86.6 50,0 150,0 200,86.6" stroke="black" stroke-width="1" onclick="changeFill(evt)" data-column="8" transform="translate(1200,1211)" data-row-right="3" data-edge="0" id="h:8:3"/>
	<polygon points="200,86.6 150,173 50,173 0,86.6 50,0 150,0 200,86.6" stroke="black" stroke-width="1" onclick="changeFill(evt)" data-column="9" transform="translate(1350,1297.6)" data-row-right="3" data-edge="0" id="h:9:3"/>
	<polygon points="200,86.6 150,173 50,173 0,86.6 50,0 150,0 200,86.6" stroke="black" stroke-width="1" onclick="changeFill(evt)" data-column="10" transform="translate(1500,1211)" data-row-right="2" data-edge="1" id="h:10:2"/>

	<polygon points="200,86.6 150,173 50,173 0,86.6 50,0 150,0 200,86.6" stroke="black" stroke-width="1" onclick="changeFill(evt)" data-column="1" transform="translate(150,1470.6)" data-row-right="8" data-edge="1" id="h:1:8"/>
	<polygon points="200,86.6 150,173 50,173 0,86.6 50,0 150,0 200,86.6" stroke="black" stroke-width="1" onclick="changeFill(evt)" data-column="2" transform="translate(300,1384)" data-row-right="7" data-edge="0" id="h:2:7"/>
	<polygon points="200,86.6 150,173 50,173 0,86.6 50,0 150,0 200,86.6" stroke="black" stroke-width="1" onclick="changeFill(evt)" data-column="3" transform="translate(450,1470.6)" data-row-right="7" data-edge="0" id="h:3:7"/>
	<polygon points="200,86.6 150,173 50,173 0,86.6 50,0 150,0 200,86.6" stroke="black" stroke-width="1" onclick="changeFill(evt)" data-column="4" transform="translate(600,1384)" data-row-right="6" data-edge="0" id="h:4:6"/>
	<polygon points="200,86.6 150,173 50,173 0,86.6 50,0 150,0 200,86.6" stroke="black" stroke-width="1" onclick="changeFill(evt)" data-column="5" transform="translate(750,1470.6)" data-row-right="6" data-edge="0" id="h:5:6"/>
	<polygon points="200,86.6 150,173 50,173 0,86.6 50,0 150,0 200,86.6" stroke="black" stroke-width="1" onclick="changeFill(evt)" data-column="6" transform="translate(900,1384)" data-row-right="5" data-edge="0" id="h:6:5"/>
	<polygon points="200,86.6 150,173 50,173 0,86.6 50,0 150,0 200,86.6" stroke="black" stroke-width="1" onclick="changeFill(evt)" data-column="7" transform="translate(1050,1470.6)" data-row-right="5" data-edge="0" id="h:7:5"/>
	<polygon points="200,86.6 150,173 50,173 0,86.6 50,0 150,0 200,86.6" stroke="black" stroke-width="1" onclick="changeFill(evt)" data-column="8" transform="translate(1200,1384)" data-row-right="4" data-edge="0" id="h:8:4"/>
	<polygon points="200,86.6 150,173 50,173 0,86.6 50,0 150,0 200,86.6" stroke="black" stroke-width="1" onclick="changeFill(evt)" data-column="9" transform="translate(1350,1470.6)" data-row-right="4" data-edge="0" id="h:9:4"/>
	<polygon points="200,86.6 150,173 50,173 0,86.6 50,0 150,0 200,86.6" stroke="black" stroke-width="1" onclick="changeFill(evt)" data-column="10" transform="translate(1500,1384)" data-row-right="3" data-edge="1" id="h:10:3"/>

	<polygon points="200,86.6 150,173 50,173 0,86.6 50,0 150,0 200,86.6" stroke="black" stroke-width="1" onclick="changeFill(evt)" data-column="1" transform="translate(150,1643.6)" data-row-right="9" data-edge="1" id="h:1:9"/>
	<polygon points="200,86.6 150,173 50,173 0,86.6 50,0 150,0 200,86.6" stroke="black" stroke-width="1" onclick="changeFill(evt)" data-column="2" transform="translate(300,1557)" data-row-right="8" data-edge="1" id="h:2:8"/>
	<polygon points="200,86.6 150,173 50,173 0,86.6 50,0 150,0 200,86.6" stroke="black" stroke-width="1" onclick="changeFill(evt)" data-column="3" transform="translate(450,1643.6)" data-row-right="8" data-edge="1" id="h:3:8"/>
	<polygon points="200,86.6 150,173 50,173 0,86.6 50,0 150,0 200,86.6" stroke="black" stroke-width="1" onclick="changeFill(evt)" data-column="4" transform="translate(600,1557)" data-row-right="7" data-edge="1" id="h:4:7"/>
	<polygon points="200,86.6 150,173 50,173 0,86.6 50,0 150,0 200,86.6" stroke="black" stroke-width="1" onclick="changeFill(evt)" data-column="5" transform="translate(750,1643.6)" data-row-right="7" data-edge="1" id="h:5:7"/>
	<polygon points="200,86.6 150,173 50,173 0,86.6 50,0 150,0 200,86.6" stroke="black" stroke-width="1" onclick="changeFill(evt)" data-column="6" transform="translate(900,1557)" data-row-right="6" data-edge="1" id="h:6:6"/>
	<polygon points="200,86.6 150,173 50,173 0,86.6 50,0 150,0 200,86.6" stroke="black" stroke-width="1" onclick="changeFill(evt)" data-column="7" transform="translate(1050,1643.6)" data-row-right="6" data-edge="1" id="h:7:6"/>
	<polygon points="200,86.6 150,173 50,173 0,86.6 50,0 150,0 200,86.6" stroke="black" stroke-width="1" onclick="changeFill(evt)" data-column="8" transform="translate(1200,1557)" data-row-right="5" data-edge="1" id="h:8:5"/>
	<polygon points="200,86.6 150,173 50,173 0,86.6 50,0 150,0 200,86.6" stroke="black" stroke-width="1" onclick="changeFill(evt)" data-column="9" transform="translate(1350,1643.6)" data-row-right="5" data-edge="1" id="h:9:5"/>
	<polygon points="200,86.6 150,173 50,173 0,86.6 50,0 150,0 200,86.6" stroke="black" stroke-width="1" onclick="changeFill(evt)" data-column="10" transform="translate(1500,1557)" data-row-right="4" data-edge="1" id="h:10:4" onload="initFill()"/>
      </g>
    </g>
  </g>
<!--/g-->

</svg>
